<svg xmlns="http://www.w3.org/2000/svg" viewBox="0 0 512 512">
  <defs>
    <linearGradient id="grad_super_admin" x1="0%" y1="0%" x2="100%" y2="100%">
      <stop offset="0%" style="stop-color:#FFD700;stop-opacity:1" />
      <stop offset="100%" style="stop-color:#B8860B;stop-opacity:1" />
    </linearGradient>
  </defs>
  <circle cx="256" cy="256" r="256" fill="url(#grad_super_admin)" />
  <path d="M256 128l-80 160h160z" fill="white" opacity="0.8"/> <!-- Crown-ish triangle -->
  <path d="M256 340c-60 0-110-40-110-90s50-90 110-90 110 40 110 90-50 90-110 90zm0-160c-40 0-70 25-70 50s30 50 70 50 70-25 70-50-30-50-70-50z" fill="white"/>
  <path d="M256 360c-90 0-160 50-160 110h320c0-60-70-110-160-110z" fill="white" opacity="0.9"/>
</svg>
